<?xml version="1.0" encoding="UTF-8" standalone="no"?>
<svg
   xmlns:dc="http://purl.org/dc/elements/1.1/"
   xmlns:cc="http://creativecommons.org/ns#"
   xmlns:rdf="http://www.w3.org/1999/02/22-rdf-syntax-ns#"
   xmlns:svg="http://www.w3.org/2000/svg"
   xmlns="http://www.w3.org/2000/svg"
   viewBox="0 0 1212.3822 439.12268"
   height="439.12268"
   width="1212.3822"
   xml:space="preserve"
   id="svg2"
   version="1.1"><metadata
     id="metadata8"><rdf:RDF><cc:Work
         rdf:about=""><dc:format>image/svg+xml</dc:format><dc:type
           rdf:resource="http://purl.org/dc/dcmitype/StillImage" /></cc:Work></rdf:RDF></metadata><defs
     id="defs6"><clipPath
       id="clipPath14"
       clipPathUnits="userSpaceOnUse"><path
         id="path12"
         d="M 0,0 H 960 V 540 H 0 Z" /></clipPath><clipPath
       id="clipPath22"
       clipPathUnits="userSpaceOnUse"><path
         id="path20"
         d="M 0,0 H 960 V 540 H 0 Z" /></clipPath><clipPath
       id="clipPath34"
       clipPathUnits="userSpaceOnUse"><path
         id="path32"
         d="M 0,0 H 960 V 540 H 0 Z" /></clipPath></defs><g
     clip-path="url(#clipPath14)"
     transform="matrix(1.3333333,0,0,-1.3333333,-3.0284267,654.384)"
     id="g10"><g
       transform="matrix(0.9485168,0,0,0.5855103,-0.0128632,166.13382)"
       id="g16"><g
         clip-path="url(#clipPath22)"
         id="g18"><g
           transform="translate(0,540)"
           id="g24"><path
             id="path26"
             style="fill:#ffffff;fill-opacity:1;fill-rule:nonzero;stroke:none"
             d="M 0,0 H 960 V -540 H 0 Z" /></g></g></g><g
       id="g28"><g
         clip-path="url(#clipPath34)"
         id="g30"><g
           transform="translate(263.9857,399.9777)"
           id="g36"><path
             id="path38"
             style="fill:#a6a6a6;fill-opacity:1;fill-rule:nonzero;stroke:none"
             d="M 0,0 H 116.415 V -69.429 H 0 Z" /></g><g
           transform="matrix(7.87e-5,0,0,-7.87e-5,263.9857,399.9777)"
           id="g40"><path
             id="path42"
             style="fill:none;stroke:#000000;stroke-width:12700;stroke-linecap:butt;stroke-linejoin:miter;stroke-miterlimit:8;stroke-dasharray:none;stroke-opacity:1"
             d="M 0,0 H 1478471 V 881743 H 0 Z" /></g><text
           id="text48"
           style="font-variant:normal;font-weight:normal;font-size:18px;font-family:Calibri;-inkscape-font-specification:Calibri;writing-mode:lr-tb;fill:#000000;fill-opacity:1;fill-rule:nonzero;stroke:none"
           transform="matrix(1,0,0,-1,300.8532,369.8634)"><tspan
             id="tspan44"
             y="0"
             x="0 9.7505999 18.4932 34.417801">BEWS</tspan><tspan
             id="tspan46"
             y="21.33"
             x="-14.976 -5.4755998 3.8627999 9.8532 15.8616 24.858 33.3144 39.124802 48.121201">untreated</tspan></text>
<g
           transform="translate(53.1949,377.3994)"
           id="g50"><path
             id="path52"
             style="fill:#a6a6a6;fill-opacity:1;fill-rule:nonzero;stroke:none"
             d="M 0,0 H 184.202 V 9.214 L 202.63,-9.214 184.202,-27.643 v 9.215 H 0 Z" /></g><g
           transform="matrix(7.87e-5,0,0,-7.87e-5,53.19488,386.6138)"
           id="g54"><g
             transform="translate(0,117022.2)"
             id="g56"><path
               id="path58"
               style="fill:none;stroke:#000000;stroke-width:12700;stroke-linecap:butt;stroke-linejoin:miter;stroke-miterlimit:8;stroke-dasharray:none;stroke-opacity:1"
               d="m 0,0 h 2339360 v -117022.2 l 234040,234044.4 -234040,234041.61 V 234041.61 H 0 Z" /></g></g><text
           id="text62"
           style="font-variant:normal;font-weight:normal;font-size:18px;font-family:Calibri;-inkscape-font-specification:Calibri;writing-mode:lr-tb;fill:#000000;fill-opacity:1;fill-rule:nonzero;stroke:none"
           transform="matrix(1,0,0,-1,120.1248,386.3928)"><tspan
             id="tspan60"
             y="0"
             x="0 11.5002 20.840401 26.8326 32.8428 41.841 50.299198 56.111401 65.109596">Untreated</tspan></text>
<text
           id="text66"
           style="font-variant:normal;font-weight:normal;font-size:24px;font-family:Calibri;-inkscape-font-specification:Calibri;writing-mode:lr-tb;fill:#000000;fill-opacity:1;fill-rule:nonzero;stroke:none"
           transform="matrix(0,1,1,0,31.2633,266.8822)"><tspan
             id="tspan64"
             y="0"
             x="0 10.9992 18.7848 31.4088 39.784801 58.764 75.624001 86.908798 94.667999 106.668">Stormwater</tspan></text>
<g
           transform="translate(264.7235,316.3565)"
           id="g68"><path
             id="path70"
             style="fill:#d9d9d9;fill-opacity:1;fill-rule:nonzero;stroke:none"
             d="M 0,0 H 116.415 V -69.429 H 0 Z" /></g><g
           transform="matrix(7.87e-5,0,0,-7.87e-5,264.7235,316.3565)"
           id="g72"><path
             id="path74"
             style="fill:none;stroke:#000000;stroke-width:12700;stroke-linecap:butt;stroke-linejoin:miter;stroke-miterlimit:8;stroke-dasharray:none;stroke-opacity:1"
             d="M 0,0 H 1478471 V 881743 H 0 Z" /></g><text
           id="text80"
           style="font-variant:normal;font-weight:normal;font-size:18px;font-family:Calibri;-inkscape-font-specification:Calibri;writing-mode:lr-tb;fill:#000000;fill-opacity:1;fill-rule:nonzero;stroke:none"
           transform="matrix(1,0,0,-1,301.591,286.2421)"><tspan
             id="tspan76"
             y="0"
             x="0 9.7505999 18.4932 34.417801">BEWS</tspan><tspan
             id="tspan78"
             y="21.33"
             x="-5.5619998 0.43740001 6.4548001 15.4602 23.9256 29.745001 38.750401">treated</tspan></text>
<g
           transform="translate(126.2802,287.4295)"
           id="g82"><path
             id="path84"
             style="fill:#d9d9d9;fill-opacity:1;fill-rule:nonzero;stroke:none"
             d="M 0,0 C 0,14.438 13.238,26.143 29.568,26.143 45.898,26.143 59.136,14.438 59.136,0 59.136,-14.438 45.898,-26.143 29.568,-26.143 13.238,-26.143 0,-14.438 0,0 Z" /></g><g
           transform="matrix(7.87e-5,0,0,-7.87e-5,126.2802,313.5724)"
           id="g86"><g
             transform="translate(0,332014)"
             id="g88"><path
               id="path90"
               style="fill:none;stroke:#000000;stroke-width:12700;stroke-linecap:butt;stroke-linejoin:miter;stroke-miterlimit:8;stroke-dasharray:none;stroke-opacity:1"
               d="m 0,0 c 0,-183366.3 168122,-332014 375511,-332014 207389,0 375511,148647.7 375511,332014 0,183366.31 -168122,332014 -375511,332014 C 168122,332014 0,183366.31 0,0 Z" /></g></g><g
           transform="translate(53.1949,296.6438)"
           id="g92"><path
             id="path94"
             style="fill:#a6a6a6;fill-opacity:1;fill-rule:nonzero;stroke:none"
             d="M 0,0 H 46.732 V 9.214 L 65.16,-9.214 46.732,-27.643 v 9.214 l -46.732,0 z" /></g><g
           transform="matrix(7.87e-5,0,0,-7.87e-5,53.19488,305.8581)"
           id="g96"><g
             transform="translate(0,117022)"
             id="g98"><path
               id="path100"
               style="fill:none;stroke:#000000;stroke-width:12700;stroke-linecap:butt;stroke-linejoin:miter;stroke-miterlimit:8;stroke-dasharray:none;stroke-opacity:1"
               d="M 0,0 H 593494.38 V -117022 L 827537,117021 593494.38,351064 V 234043 H 0 Z" /></g></g><g
           transform="translate(194.3602,292.5139)"
           id="g102"><path
             id="path104"
             style="fill:#d9d9d9;fill-opacity:1;fill-rule:nonzero;stroke:none"
             d="M 0,0 H 46.732 V 9.214 L 65.16,-9.214 46.732,-27.643 v 9.215 H 0 Z" /></g><g
           transform="matrix(7.87e-5,0,0,-7.87e-5,194.3602,301.7283)"
           id="g106"><g
             transform="translate(0,117022)"
             id="g108"><path
               id="path110"
               style="fill:none;stroke:#000000;stroke-width:12700;stroke-linecap:butt;stroke-linejoin:miter;stroke-miterlimit:8;stroke-dasharray:none;stroke-opacity:1"
               d="M 0,0 H 593494.38 V -117022 L 827537,117021 593494.38,351064 V 234043 H 0 Z" /></g></g><g
           transform="translate(394.93,292.3839)"
           id="g112"><path
             id="path114"
             style="fill:#d9d9d9;fill-opacity:1;fill-rule:nonzero;stroke:none"
             d="m 0,0 h 188.618 v 9.214 l 18.429,-18.428 -18.429,-18.429 v 9.215 H 0 Z" /></g><g
           transform="matrix(7.87e-5,0,0,-7.87e-5,394.93,301.5983)"
           id="g116"><g
             transform="translate(0,117022.2)"
             id="g118"><path
               id="path120"
               style="fill:none;stroke:#000000;stroke-width:12700;stroke-linecap:butt;stroke-linejoin:miter;stroke-miterlimit:8;stroke-dasharray:none;stroke-opacity:1"
               d="m 0,0 h 2395452 v -117022.2 l 234040,234044.4 -234040,234041.61 V 234041.61 H 0 Z" /></g></g><text
           id="text134"
           style="font-variant:normal;font-weight:normal;font-size:18px;font-family:Calibri;-inkscape-font-specification:Calibri;writing-mode:lr-tb;fill:#000000;fill-opacity:1;fill-rule:nonzero;stroke:none"
           transform="matrix(1,0,0,-1,263.0248,414.0421)"><tspan
             id="tspan122"
             y="0"
             x="0 10.3752 14.5044 23.1336 29.386801 43.757999 52.135201 56.2644 60.3936 67.870796 76.877998 83.887199 90.8964 102.5136">Alarm?		Yes/No</tspan><tspan
             id="tspan124"
             y="86.598"
             x="177.786 185.976 191.3166 196.8174 200.93941 210.4398 219.4398 228.78 234.7794 238.905 244.40581 250.3656 259.63019 266.36041 275.36041 284.86081 289.36081">Effluent	frozen,	</tspan><tspan
             id="tspan126"
             y="107.928"
             x="177.786 184.5864 190.4256 199.92599 205.9416 214.9416 224.442 228.942 233.0676 239.067 248.5674 257.08319 269.81281 278.81281">stored,	thawed</tspan><tspan
             id="tspan128"
             y="177.31799"
             x="-120.168 -111.9186 -102.4092 -98.281799 -94.154404">Soil	</tspan><tspan
             id="tspan130"
             y="198.64799"
             x="-152.964 -143.21339 -139.0788 -129.5802 -123.5736 -114.669 -108.8424 -99.847801 -90.5112 -84.504601 -80.370003 -70.871399">Bioretention</tspan><tspan
             id="tspan132"
             y="220.302"
             x="-145.08 -137.4444 -131.4288 -122.4252 -113.9616 -107.964 -93.596397 -84.592796 -75.2472">Treatment</tspan></text>
<g
           transform="translate(644.4863,344.9524)"
           id="g136"><path
             id="path138"
             style="fill:#a6a6a6;fill-opacity:1;fill-rule:nonzero;stroke:none"
             d="m 0,0 c 0,5.164 4.186,9.351 9.351,9.351 5.164,0 9.35,-4.187 9.35,-9.351 0,-5.164 -4.186,-9.351 -9.35,-9.351 C 4.186,-9.351 0,-5.164 0,0 Z" /></g><g
           transform="matrix(7.87e-5,0,0,-7.87e-5,644.4863,354.3031)"
           id="g140"><g
             transform="translate(0,118753.5)"
             id="g142"><path
               id="path144"
               style="fill:none;stroke:#000000;stroke-width:12700;stroke-linecap:butt;stroke-linejoin:miter;stroke-miterlimit:8;stroke-dasharray:none;stroke-opacity:1"
               d="m 0,0 c 0,-65585.75 53167.75,-118753.5 118753.5,-118753.5 65585.7,0 118753.5,53167.75 118753.5,118753.5 0,65585.703 -53167.8,118753.5 -118753.5,118753.5 C 53167.75,118753.5 0,65585.703 0,0 Z" /></g></g><g
           transform="translate(666.7717,344.1729)"
           id="g146"><path
             id="path148"
             style="fill:#a6a6a6;fill-opacity:1;fill-rule:nonzero;stroke:none"
             d="m 0,0 c 0,5.164 4.186,9.351 9.351,9.351 5.164,0 9.35,-4.187 9.35,-9.351 0,-5.164 -4.186,-9.351 -9.35,-9.351 C 4.186,-9.351 0,-5.164 0,0 Z" /></g><g
           transform="matrix(7.87e-5,0,0,-7.87e-5,666.7717,353.5235)"
           id="g150"><g
             transform="translate(0,118753.5)"
             id="g152"><path
               id="path154"
               style="fill:none;stroke:#000000;stroke-width:12700;stroke-linecap:butt;stroke-linejoin:miter;stroke-miterlimit:8;stroke-dasharray:none;stroke-opacity:1"
               d="m 0,0 c 0,-65585.75 53167.75,-118753.5 118753.5,-118753.5 65585.7,0 118753.5,53167.75 118753.5,118753.5 0,65585.703 -53167.8,118753.5 -118753.5,118753.5 C 53167.75,118753.5 0,65585.703 0,0 Z" /></g></g><g
           transform="translate(690.1491,344.1729)"
           id="g156"><path
             id="path158"
             style="fill:#a6a6a6;fill-opacity:1;fill-rule:nonzero;stroke:none"
             d="m 0,0 c 0,5.164 4.186,9.351 9.351,9.351 5.164,0 9.35,-4.187 9.35,-9.351 0,-5.164 -4.186,-9.351 -9.35,-9.351 C 4.186,-9.351 0,-5.164 0,0 Z" /></g><g
           transform="matrix(7.87e-5,0,0,-7.87e-5,690.1491,353.5235)"
           id="g160"><g
             transform="translate(0,118753.5)"
             id="g162"><path
               id="path164"
               style="fill:none;stroke:#000000;stroke-width:12700;stroke-linecap:butt;stroke-linejoin:miter;stroke-miterlimit:8;stroke-dasharray:none;stroke-opacity:1"
               d="m 0,0 c 0,-65585.75 53167.75,-118753.5 118753.5,-118753.5 65585.7,0 118753.5,53167.75 118753.5,118753.5 0,65585.703 -53167.8,118753.5 -118753.5,118753.5 C 53167.75,118753.5 0,65585.703 0,0 Z" /></g></g><g
           transform="translate(644.3304,321.7316)"
           id="g166"><path
             id="path168"
             style="fill:#d9d9d9;fill-opacity:1;fill-rule:nonzero;stroke:none"
             d="m 0,0 c 0,5.164 4.186,9.351 9.351,9.351 5.164,0 9.35,-4.187 9.35,-9.351 0,-5.164 -4.186,-9.351 -9.35,-9.351 C 4.186,-9.351 0,-5.164 0,0 Z" /></g><g
           transform="matrix(7.87e-5,0,0,-7.87e-5,644.3304,331.0823)"
           id="g170"><g
             transform="translate(0,118753.5)"
             id="g172"><path
               id="path174"
               style="fill:none;stroke:#000000;stroke-width:12700;stroke-linecap:butt;stroke-linejoin:miter;stroke-miterlimit:8;stroke-dasharray:none;stroke-opacity:1"
               d="m 0,0 c 0,-65585.75 53167.75,-118753.5 118753.5,-118753.5 65585.7,0 118753.5,53167.75 118753.5,118753.5 0,65585.703 -53167.8,118753.5 -118753.5,118753.5 C 53167.75,118753.5 0,65585.703 0,0 Z" /></g></g><g
           transform="translate(666.6158,320.9521)"
           id="g176"><path
             id="path178"
             style="fill:#d9d9d9;fill-opacity:1;fill-rule:nonzero;stroke:none"
             d="m 0,0 c 0,5.164 4.187,9.351 9.351,9.351 5.164,0 9.35,-4.187 9.35,-9.351 0,-5.164 -4.186,-9.351 -9.35,-9.351 C 4.187,-9.351 0,-5.164 0,0 Z" /></g><g
           transform="matrix(7.87e-5,0,0,-7.87e-5,666.6158,330.3028)"
           id="g180"><g
             transform="translate(0,118753.5)"
             id="g182"><path
               id="path184"
               style="fill:none;stroke:#000000;stroke-width:12700;stroke-linecap:butt;stroke-linejoin:miter;stroke-miterlimit:8;stroke-dasharray:none;stroke-opacity:1"
               d="m 0,0 c 0,-65585.75 53167.75,-118753.5 118753.5,-118753.5 65585.7,0 118753.5,53167.75 118753.5,118753.5 0,65585.703 -53167.8,118753.5 -118753.5,118753.5 C 53167.75,118753.5 0,65585.703 0,0 Z" /></g></g><g
           transform="translate(689.9932,320.9521)"
           id="g186"><path
             id="path188"
             style="fill:#d9d9d9;fill-opacity:1;fill-rule:nonzero;stroke:none"
             d="m 0,0 c 0,5.164 4.186,9.351 9.351,9.351 5.164,0 9.35,-4.187 9.35,-9.351 0,-5.164 -4.186,-9.351 -9.35,-9.351 C 4.186,-9.351 0,-5.164 0,0 Z" /></g><g
           transform="matrix(7.87e-5,0,0,-7.87e-5,689.9932,330.3028)"
           id="g190"><g
             transform="translate(0,118753.5)"
             id="g192"><path
               id="path194"
               style="fill:none;stroke:#000000;stroke-width:12700;stroke-linecap:butt;stroke-linejoin:miter;stroke-miterlimit:8;stroke-dasharray:none;stroke-opacity:1"
               d="m 0,0 c 0,-65585.75 53167.75,-118753.5 118753.5,-118753.5 65585.7,0 118753.5,53167.75 118753.5,118753.5 0,65585.703 -53167.8,118753.5 -118753.5,118753.5 C 53167.75,118753.5 0,65585.703 0,0 Z" /></g></g><g
           transform="translate(645.2655,296.4849)"
           id="g196"><path
             id="path198"
             style="fill:#ffffff;fill-opacity:1;fill-rule:nonzero;stroke:none"
             d="m 0,0 c 0,5.164 4.186,9.351 9.351,9.351 5.164,0 9.35,-4.187 9.35,-9.351 0,-5.164 -4.186,-9.351 -9.35,-9.351 C 4.186,-9.351 0,-5.164 0,0 Z" /></g><g
           transform="matrix(7.87e-5,0,0,-7.87e-5,645.2655,305.8356)"
           id="g200"><g
             transform="translate(0,118753.5)"
             id="g202"><path
               id="path204"
               style="fill:none;stroke:#000000;stroke-width:12700;stroke-linecap:butt;stroke-linejoin:miter;stroke-miterlimit:8;stroke-dasharray:none;stroke-opacity:1"
               d="m 0,0 c 0,-65585.75 53167.75,-118753.5 118753.5,-118753.5 65585.7,0 118753.5,53167.75 118753.5,118753.5 0,65585.703 -53167.8,118753.5 -118753.5,118753.5 C 53167.75,118753.5 0,65585.703 0,0 Z" /></g></g><g
           transform="translate(667.5509,295.7054)"
           id="g206"><path
             id="path208"
             style="fill:#ffffff;fill-opacity:1;fill-rule:nonzero;stroke:none"
             d="m 0,0 c 0,5.164 4.187,9.351 9.351,9.351 5.164,0 9.35,-4.187 9.35,-9.351 0,-5.164 -4.186,-9.351 -9.35,-9.351 C 4.187,-9.351 0,-5.164 0,0 Z" /></g><g
           transform="matrix(7.87e-5,0,0,-7.87e-5,667.5509,305.0561)"
           id="g210"><g
             transform="translate(0,118753.5)"
             id="g212"><path
               id="path214"
               style="fill:none;stroke:#000000;stroke-width:12700;stroke-linecap:butt;stroke-linejoin:miter;stroke-miterlimit:8;stroke-dasharray:none;stroke-opacity:1"
               d="m 0,0 c 0,-65585.75 53167.75,-118753.5 118753.5,-118753.5 65585.7,0 118753.5,53167.75 118753.5,118753.5 0,65585.703 -53167.8,118753.5 -118753.5,118753.5 C 53167.75,118753.5 0,65585.703 0,0 Z" /></g></g><g
           transform="translate(690.9283,295.7054)"
           id="g216"><path
             id="path218"
             style="fill:#ffffff;fill-opacity:1;fill-rule:nonzero;stroke:none"
             d="m 0,0 c 0,5.164 4.186,9.351 9.351,9.351 5.164,0 9.35,-4.187 9.35,-9.351 0,-5.164 -4.186,-9.351 -9.35,-9.351 C 4.186,-9.351 0,-5.164 0,0 Z" /></g><g
           transform="matrix(7.87e-5,0,0,-7.87e-5,690.9283,305.0561)"
           id="g220"><g
             transform="translate(0,118753.5)"
             id="g222"><path
               id="path224"
               style="fill:none;stroke:#000000;stroke-width:12700;stroke-linecap:butt;stroke-linejoin:miter;stroke-miterlimit:8;stroke-dasharray:none;stroke-opacity:1"
               d="m 0,0 c 0,-65585.75 53167.75,-118753.5 118753.5,-118753.5 65585.7,0 118753.5,53167.75 118753.5,118753.5 0,65585.703 -53167.8,118753.5 -118753.5,118753.5 C 53167.75,118753.5 0,65585.703 0,0 Z" /></g></g><g
           transform="translate(788.3385,344.2123)"
           id="g226"><path
             id="path228"
             style="fill:#a6a6a6;fill-opacity:1;fill-rule:nonzero;stroke:none"
             d="m 0,0 c 0,5.164 4.186,9.351 9.351,9.351 5.164,0 9.35,-4.187 9.35,-9.351 0,-5.164 -4.186,-9.351 -9.35,-9.351 C 4.186,-9.351 0,-5.164 0,0 Z" /></g><g
           transform="matrix(7.87e-5,0,0,-7.87e-5,788.3385,353.563)"
           id="g230"><g
             transform="translate(0,118753.5)"
             id="g232"><path
               id="path234"
               style="fill:none;stroke:#000000;stroke-width:12700;stroke-linecap:butt;stroke-linejoin:miter;stroke-miterlimit:8;stroke-dasharray:none;stroke-opacity:1"
               d="m 0,0 c 0,-65585.75 53167.75,-118753.5 118753.5,-118753.5 65585.7,0 118753.5,53167.75 118753.5,118753.5 0,65585.703 -53167.8,118753.5 -118753.5,118753.5 C 53167.75,118753.5 0,65585.703 0,0 Z" /></g></g><g
           transform="translate(810.6239,343.4328)"
           id="g236"><path
             id="path238"
             style="fill:#a6a6a6;fill-opacity:1;fill-rule:nonzero;stroke:none"
             d="m 0,0 c 0,5.164 4.186,9.351 9.351,9.351 5.164,0 9.35,-4.187 9.35,-9.351 0,-5.164 -4.186,-9.351 -9.35,-9.351 C 4.186,-9.351 0,-5.164 0,0 Z" /></g><g
           transform="matrix(7.87e-5,0,0,-7.87e-5,810.6239,352.7835)"
           id="g240"><g
             transform="translate(0,118753.5)"
             id="g242"><path
               id="path244"
               style="fill:none;stroke:#000000;stroke-width:12700;stroke-linecap:butt;stroke-linejoin:miter;stroke-miterlimit:8;stroke-dasharray:none;stroke-opacity:1"
               d="m 0,0 c 0,-65585.75 53167.75,-118753.5 118753.5,-118753.5 65585.7,0 118753.5,53167.75 118753.5,118753.5 0,65585.703 -53167.8,118753.5 -118753.5,118753.5 C 53167.75,118753.5 0,65585.703 0,0 Z" /></g></g><g
           transform="translate(834.0012,343.4328)"
           id="g246"><path
             id="path248"
             style="fill:#a6a6a6;fill-opacity:1;fill-rule:nonzero;stroke:none"
             d="m 0,0 c 0,5.164 4.186,9.351 9.351,9.351 5.164,0 9.35,-4.187 9.35,-9.351 0,-5.164 -4.186,-9.351 -9.35,-9.351 C 4.186,-9.351 0,-5.164 0,0 Z" /></g><g
           transform="matrix(7.87e-5,0,0,-7.87e-5,834.0012,352.7835)"
           id="g250"><g
             transform="translate(0,118753.5)"
             id="g252"><path
               id="path254"
               style="fill:none;stroke:#000000;stroke-width:12700;stroke-linecap:butt;stroke-linejoin:miter;stroke-miterlimit:8;stroke-dasharray:none;stroke-opacity:1"
               d="m 0,0 c 0,-65585.75 53167.75,-118753.5 118753.5,-118753.5 65585.7,0 118753.5,53167.75 118753.5,118753.5 0,65585.703 -53167.8,118753.5 -118753.5,118753.5 C 53167.75,118753.5 0,65585.703 0,0 Z" /></g></g><g
           transform="translate(788.1825,320.9915)"
           id="g256"><path
             id="path258"
             style="fill:#d9d9d9;fill-opacity:1;fill-rule:nonzero;stroke:none"
             d="m 0,0 c 0,5.164 4.187,9.351 9.351,9.351 5.164,0 9.35,-4.187 9.35,-9.351 0,-5.164 -4.186,-9.351 -9.35,-9.351 C 4.187,-9.351 0,-5.164 0,0 Z" /></g><g
           transform="matrix(7.87e-5,0,0,-7.87e-5,788.1825,330.3422)"
           id="g260"><g
             transform="translate(0,118753.5)"
             id="g262"><path
               id="path264"
               style="fill:none;stroke:#000000;stroke-width:12700;stroke-linecap:butt;stroke-linejoin:miter;stroke-miterlimit:8;stroke-dasharray:none;stroke-opacity:1"
               d="m 0,0 c 0,-65585.75 53167.75,-118753.5 118753.5,-118753.5 65585.7,0 118753.5,53167.75 118753.5,118753.5 0,65585.703 -53167.8,118753.5 -118753.5,118753.5 C 53167.75,118753.5 0,65585.703 0,0 Z" /></g></g><g
           transform="translate(810.4679,320.212)"
           id="g266"><path
             id="path268"
             style="fill:#d9d9d9;fill-opacity:1;fill-rule:nonzero;stroke:none"
             d="m 0,0 c 0,5.164 4.187,9.351 9.351,9.351 5.164,0 9.35,-4.187 9.35,-9.351 0,-5.164 -4.186,-9.351 -9.35,-9.351 C 4.187,-9.351 0,-5.164 0,0 Z" /></g><g
           transform="matrix(7.87e-5,0,0,-7.87e-5,810.4679,329.5627)"
           id="g270"><g
             transform="translate(0,118753.5)"
             id="g272"><path
               id="path274"
               style="fill:none;stroke:#000000;stroke-width:12700;stroke-linecap:butt;stroke-linejoin:miter;stroke-miterlimit:8;stroke-dasharray:none;stroke-opacity:1"
               d="m 0,0 c 0,-65585.75 53167.75,-118753.5 118753.5,-118753.5 65585.7,0 118753.5,53167.75 118753.5,118753.5 0,65585.703 -53167.8,118753.5 -118753.5,118753.5 C 53167.75,118753.5 0,65585.703 0,0 Z" /></g></g><g
           transform="translate(833.8453,320.212)"
           id="g276"><path
             id="path278"
             style="fill:#d9d9d9;fill-opacity:1;fill-rule:nonzero;stroke:none"
             d="m 0,0 c 0,5.164 4.186,9.351 9.351,9.351 5.164,0 9.35,-4.187 9.35,-9.351 0,-5.164 -4.186,-9.351 -9.35,-9.351 C 4.186,-9.351 0,-5.164 0,0 Z" /></g><g
           transform="matrix(7.87e-5,0,0,-7.87e-5,833.8453,329.5627)"
           id="g280"><g
             transform="translate(0,118753.5)"
             id="g282"><path
               id="path284"
               style="fill:none;stroke:#000000;stroke-width:12700;stroke-linecap:butt;stroke-linejoin:miter;stroke-miterlimit:8;stroke-dasharray:none;stroke-opacity:1"
               d="m 0,0 c 0,-65585.75 53167.75,-118753.5 118753.5,-118753.5 65585.7,0 118753.5,53167.75 118753.5,118753.5 0,65585.703 -53167.8,118753.5 -118753.5,118753.5 C 53167.75,118753.5 0,65585.703 0,0 Z" /></g></g><g
           transform="translate(789.1177,295.7449)"
           id="g286"><path
             id="path288"
             style="fill:#ffffff;fill-opacity:1;fill-rule:nonzero;stroke:none"
             d="m 0,0 c 0,5.164 4.186,9.351 9.351,9.351 5.164,0 9.35,-4.187 9.35,-9.351 0,-5.164 -4.186,-9.351 -9.35,-9.351 C 4.186,-9.351 0,-5.164 0,0 Z" /></g><g
           transform="matrix(7.87e-5,0,0,-7.87e-5,789.1177,305.0955)"
           id="g290"><g
             transform="translate(0,118753.5)"
             id="g292"><path
               id="path294"
               style="fill:none;stroke:#000000;stroke-width:12700;stroke-linecap:butt;stroke-linejoin:miter;stroke-miterlimit:8;stroke-dasharray:none;stroke-opacity:1"
               d="m 0,0 c 0,-65585.75 53167.75,-118753.5 118753.5,-118753.5 65585.7,0 118753.5,53167.75 118753.5,118753.5 0,65585.703 -53167.8,118753.5 -118753.5,118753.5 C 53167.75,118753.5 0,65585.703 0,0 Z" /></g></g><g
           transform="translate(811.4031,294.9653)"
           id="g296"><path
             id="path298"
             style="fill:#ffffff;fill-opacity:1;fill-rule:nonzero;stroke:none"
             d="m 0,0 c 0,5.164 4.186,9.351 9.351,9.351 5.164,0 9.35,-4.187 9.35,-9.351 0,-5.164 -4.186,-9.351 -9.35,-9.351 C 4.186,-9.351 0,-5.164 0,0 Z" /></g><g
           transform="matrix(7.87e-5,0,0,-7.87e-5,811.4031,304.316)"
           id="g300"><g
             transform="translate(0,118753.5)"
             id="g302"><path
               id="path304"
               style="fill:none;stroke:#000000;stroke-width:12700;stroke-linecap:butt;stroke-linejoin:miter;stroke-miterlimit:8;stroke-dasharray:none;stroke-opacity:1"
               d="m 0,0 c 0,-65585.75 53167.75,-118753.5 118753.5,-118753.5 65585.7,0 118753.5,53167.75 118753.5,118753.5 0,65585.703 -53167.8,118753.5 -118753.5,118753.5 C 53167.75,118753.5 0,65585.703 0,0 Z" /></g></g><g
           transform="translate(834.7804,294.9653)"
           id="g306"><path
             id="path308"
             style="fill:#ffffff;fill-opacity:1;fill-rule:nonzero;stroke:none"
             d="m 0,0 c 0,5.164 4.186,9.351 9.351,9.351 5.164,0 9.35,-4.187 9.35,-9.351 0,-5.164 -4.186,-9.351 -9.35,-9.351 C 4.186,-9.351 0,-5.164 0,0 Z" /></g><g
           transform="matrix(7.87e-5,0,0,-7.87e-5,834.7804,304.316)"
           id="g310"><g
             transform="translate(0,118753.5)"
             id="g312"><path
               id="path314"
               style="fill:none;stroke:#000000;stroke-width:12700;stroke-linecap:butt;stroke-linejoin:miter;stroke-miterlimit:8;stroke-dasharray:none;stroke-opacity:1"
               d="m 0,0 c 0,-65585.75 53167.75,-118753.5 118753.5,-118753.5 65585.7,0 118753.5,53167.75 118753.5,118753.5 0,65585.703 -53167.8,118753.5 -118753.5,118753.5 C 53167.75,118753.5 0,65585.703 0,0 Z" /></g></g><text
           id="text330"
           style="font-variant:normal;font-weight:normal;font-size:18px;font-family:Calibri;-inkscape-font-specification:Calibri;writing-mode:lr-tb;fill:#000000;fill-opacity:1;fill-rule:nonzero;stroke:none"
           transform="matrix(1,0,0,-1,722.9386,291.7809)"><tspan
             id="tspan316"
             y="0"
             x="0 7.4808002 16.9776 26.312401 32.3172 38.285999 47.782799">control</tspan><tspan
             id="tspan318"
             y="-46.835999"
             x="-9.5939999 -0.093599997 9.2447996 15.2352 21.243601 30.24 38.6964 44.506802 53.503201">untreated</tspan><tspan
             id="tspan320"
             y="-22.535999"
             x="-1.7819999 4.2174001 10.2348 19.2402 27.705601 33.525002 42.530399">treated</tspan><tspan
             id="tspan322"
             y="-97.830002"
             x="-94.68 -87.055199 -78.152397 -72.147598 -62.650799 -54.018002 -49.885201 -45.752399 -37.569599 -32.230801 -27.162001 -18.169201 -10.5444 -4.5395999">Lethal	Effects</tspan><tspan
             id="tspan324"
             y="-76.5"
             x="-71.910004 -64.440002 -55.439999 -48.438 -41.436001 -29.808001">Yes/No</tspan><tspan
             id="tspan326"
             y="-98.334"
             x="44.801998 53.051399 62.560799 72.070198 76.197601 85.112999 91.112396 100.6218 109.2492 117.468 125.658 131.004 136.08 145.08 152.71201 158.70599">SublethalEffects</tspan><tspan
             id="tspan328"
             y="-77.003998"
             x="79.452003 86.921997 95.921997 102.924 109.926 121.554">Yes/No</tspan></text>
<g
           transform="translate(394.7655,376.2307)"
           id="g332"><path
             id="path334"
             style="fill:#a6a6a6;fill-opacity:1;fill-rule:nonzero;stroke:none"
             d="m 0,0 h 188.618 v 9.214 l 18.429,-18.428 -18.429,-18.429 v 9.214 L 0,-18.429 Z" /></g><g
           transform="matrix(7.87e-5,0,0,-7.87e-5,394.7655,385.445)"
           id="g336"><g
             transform="translate(0,117022.2)"
             id="g338"><path
               id="path340"
               style="fill:none;stroke:#000000;stroke-width:12700;stroke-linecap:butt;stroke-linejoin:miter;stroke-miterlimit:8;stroke-dasharray:none;stroke-opacity:1"
               d="m 0,0 h 2395452 v -117022.2 l 234040,234044.4 -234040,234041.61 V 234041.61 H 0 Z" /></g></g><text
           id="text344"
           style="font-variant:normal;font-weight:bold;font-size:18px;font-family:Calibri;-inkscape-font-specification:Calibri-Bold;writing-mode:lr-tb;fill:#000000;fill-opacity:1;fill-rule:nonzero;stroke:none"
           transform="matrix(1,0,0,-1,290.9675,445.7039)"><tspan
             id="tspan342"
             y="0"
             x="0 9.6246004 19.249201 28.1178 35.240398 44.235001 48.369598">Phase	1</tspan></text>
<g
           transform="matrix(-7.87e-5,0,0,-7.87e-5,277.1163,450.926)"
           id="g346"><path
             id="path348"
             style="fill:none;stroke:#000000;stroke-width:32767.99804688;stroke-linecap:butt;stroke-linejoin:miter;stroke-miterlimit:8;stroke-dasharray:none;stroke-opacity:1"
             d="M 0,0 1394261,1" /></g><g
           transform="matrix(-7.87e-5,0,0,-7.87e-5,472.4651,450.926)"
           id="g350"><path
             id="path352"
             style="fill:none;stroke:#000000;stroke-width:32767.99804688;stroke-linecap:butt;stroke-linejoin:miter;stroke-miterlimit:8;stroke-dasharray:none;stroke-opacity:1"
             d="M 0,0 1394261,1" /></g><text
           id="text356"
           style="font-variant:normal;font-weight:bold;font-size:18px;font-family:Calibri;-inkscape-font-specification:Calibri-Bold;writing-mode:lr-tb;fill:#000000;fill-opacity:1;fill-rule:nonzero;stroke:none"
           transform="matrix(1,0,0,-1,712.6021,445.7039)"><tspan
             id="tspan354"
             y="0"
             x="0 9.6246004 19.249201 28.1178 35.240398 44.235001 48.369598">Phase	2</tspan></text>
<g
           transform="matrix(-7.87e-5,0,0,-7.87e-5,698.7509,450.926)"
           id="g358"><path
             id="path360"
             style="fill:none;stroke:#000000;stroke-width:32767.99804688;stroke-linecap:butt;stroke-linejoin:miter;stroke-miterlimit:8;stroke-dasharray:none;stroke-opacity:1"
             d="M 0,0 1394261,1" /></g><g
           transform="matrix(-7.87e-5,0,0,-7.87e-5,894.0997,450.926)"
           id="g362"><path
             id="path364"
             style="fill:none;stroke:#000000;stroke-width:32767.99804688;stroke-linecap:butt;stroke-linejoin:miter;stroke-miterlimit:8;stroke-dasharray:none;stroke-opacity:1"
             d="M 0,0 1394261,1" /></g></g></g></g></svg>